<svg width="1024" height="1024" viewBox="0 0 1024 1024" fill="none" xmlns="http://www.w3.org/2000/svg">
  <g transform="translate(512, 512)">
    <circle cx="0" cy="0" r="400" stroke="#337AB7" stroke-width="40"/>

    <path d="M0 -400C150 -400 300 -400 400 0" stroke="#337AB7" stroke-width="20" stroke-linecap="round"/>
    <path d="M0 -400C-150 -400 -300 -400 -400 0" stroke="#337AB7" stroke-width="20" stroke-linecap="round"/>
    <path d="M-400 0C-400 150 -400 300 0 400" stroke="#337AB7" stroke-width="20" stroke-linecap="round"/>
    <path d="M400 0C400 150 400 300 0 400" stroke="#337AB7" stroke-width="20" stroke-linecap="round"/>
    <path d="M-400 0C-400 -150 -400 -300 0 -400" stroke="#337AB7" stroke-width="20" stroke-linecap="round"/>
    <path d="M400 0C400 -150 400 -300 0 -400" stroke="#337AB7" stroke-width="20" stroke-linecap="round"/>

    <path d="M-200 0C-150 -200 150 -200 200 0C150 200 -150 200 -200 0Z" fill="#3CB371"/>

    <circle cx="0" cy="0" r="70" fill="#2E8B57"/>
  </g>
</svg>